<?xml version="1.0" encoding="utf-8"?>
<!-- Generator: Adobe Illustrator 15.0.0, SVG Export Plug-In . SVG Version: 6.00 Build 0)  -->
<!DOCTYPE svg PUBLIC "-//W3C//DTD SVG 1.1//EN" "http://www.w3.org/Graphics/SVG/1.1/DTD/svg11.dtd">
<svg version="1.1" id="Layer_1" xmlns="http://www.w3.org/2000/svg" xmlns:xlink="http://www.w3.org/1999/xlink" x="0px" y="0px"
	 width="26px" height="26px" viewBox="0 0 26 26" enable-background="new 0 0 26 26" xml:space="preserve">
<g>
	<path d="M18.192,15.869l-2.953-3.631c-0.083-0.065-0.162-0.157-0.285-0.237c-0.028-0.02-0.049-0.034-0.077-0.051
		c-0.1-0.069-0.218-0.134-0.331-0.179c-0.364-0.149-0.687-0.197-1.091-0.215c-0.586-0.022-1.009,0.215-1.392,0.511
		c-0.065,0.051-0.129,0.111-0.189,0.171c-0.139,0.139-0.189,0.205-0.307,0.331c-0.023,0.022-0.023,0.031-0.043,0.051l-3.216,4.065
		c-0.039,0.083-0.293,0.537-0.293,0.854c0,0.491,0.023,0.722,0.211,1.161c0.051,0.123,0.128,0.247,0.2,0.353
		c0.137,0.197,0.165,0.194,0.25,0.303c0.074,0.095,0.189,0.18,0.289,0.254c0.077,0.06,0.165,0.117,0.251,0.163
		c0.013,0.005,0.027,0.014,0.041,0.022c0.14,0.07,0.298,0.139,0.46,0.165l0.5,0.054h0.156c0.528-0.022,1.349-0.265,1.816-0.393
		c0.122-0.035,0.253-0.063,0.384-0.095l0.849-0.105c0.417-0.025,1.192,0.143,1.614,0.265c0.479,0.143,1.055,0.303,1.551,0.328h0.26
		c0.484-0.025,0.935-0.2,1.299-0.501c0.471-0.386,0.767-0.858,0.857-1.479c0.121-0.838-0.205-1.362-0.7-2.021
		C18.264,15.961,18.232,15.918,18.192,15.869z"/>
	<path d="M19.811,10.762c-0.721-0.311-1.703,0.609-2.077,1.472c-0.373,0.864-0.091,1.816,0.631,2.129
		c0.721,0.312,1.607-0.136,1.98-0.999C20.719,12.5,20.532,11.075,19.811,10.762z"/>
	<path d="M15.473,11c0.951,0.203,1.918-0.556,2.161-1.693c0.243-1.138-0.331-2.821-1.281-3.024c-0.95-0.202-1.916,1.151-2.158,2.289
		C13.951,9.71,14.523,10.798,15.473,11z"/>
	<path d="M11.257,11.059c1.031-0.082,1.788-1.15,1.689-2.385c-0.098-1.236-1.193-2.779-2.226-2.697
		C9.689,6.06,9.115,7.735,9.213,8.97C9.31,10.206,10.226,11.141,11.257,11.059z"/>
	<path d="M9.127,12.103C8.86,11.046,7.682,9.87,6.8,10.093c-0.882,0.224-1.135,1.761-0.868,2.817
		c0.268,1.057,1.199,1.733,2.082,1.51C8.896,14.196,9.395,13.159,9.127,12.103z"/>
</g>
</svg>
